<svg width="799" height="339" viewBox="0 0 799 339" fill="none" xmlns="http://www.w3.org/2000/svg">
<path d="M206.08 330.48H208.08V328.48V252.24H250.72H252.72V250.24V194.08V192.08H250.72H208.08V9.76001V7.76001H206.08H137.92H136.885L136.287 8.60508C94.5299 67.6412 42.7095 139.613 2.41583 191.899L2 192.439V193.12V250.24V252.24H4H136.88V328.48V330.48H138.88H206.08ZM750.299 330.48H752.299V328.48V252.24H794.939H796.939V250.24V194.08V192.08H794.939H752.299V9.76001V7.76001H750.299H682.139H681.104L680.506 8.60508C638.749 67.6412 586.928 139.613 546.635 191.899L546.219 192.439V193.12V250.24V252.24H548.219H681.099V328.48V330.48H683.099H750.299ZM136.88 192.08H79.9645C89.5256 178.88 103.621 156.604 117.167 135.196C124.111 124.223 130.91 113.478 136.88 104.3V192.08ZM398.32 2C359.537 2 329.159 17.8939 308.55 46.8811C288.003 75.7805 277.28 117.523 277.28 169.12C277.28 220.717 288.003 262.46 308.55 291.359C329.159 320.346 359.537 336.24 398.32 336.24C437.103 336.24 467.481 320.346 488.09 291.359C508.637 262.46 519.36 220.717 519.36 169.12C519.36 117.523 508.637 75.7805 488.09 46.8811C467.481 17.8939 437.103 2 398.32 2ZM398.32 64.08C413.213 64.08 425.085 72.2228 433.357 89.4651C441.685 106.826 446.24 133.232 446.24 169.12C446.24 205.009 441.685 231.415 433.357 248.775C425.085 266.017 413.213 274.16 398.32 274.16C383.427 274.16 371.555 266.017 363.283 248.775C354.955 231.415 350.4 205.009 350.4 169.12C350.4 133.232 354.955 106.826 363.283 89.4651C371.555 72.2228 383.427 64.08 398.32 64.08ZM681.099 192.08H624.183C633.744 178.88 647.84 156.604 661.386 135.196C668.329 124.223 675.129 113.478 681.099 104.3V192.08Z" stroke="#201E50" stroke-width="4"/>
</svg>
