<svg width="799" height="339" viewBox="0 0 799 339" fill="none" xmlns="http://www.w3.org/2000/svg"><path d="M206.08 330.48h2v-78.24h44.64v-60.16h-44.64V7.76h-71.195l-.598.845C94.53 67.641 42.709 139.613 2.416 191.9l-.416.54v59.8h134.88v78.24h69.2zm544.219 0h2v-78.24h44.64v-60.16h-44.64V7.76h-71.195l-.598.845C638.749 67.641 586.928 139.613 546.635 191.9l-.416.54v59.8h134.88v78.24h69.2zM136.88 192.08H79.965c9.56-13.2 23.656-35.476 37.202-56.884 6.944-10.973 13.743-21.718 19.713-30.896v87.78zM398.32 2c-38.783 0-69.161 15.894-89.77 44.881-20.547 28.9-31.27 70.642-31.27 122.239 0 51.597 10.723 93.34 31.27 122.239 20.609 28.987 50.987 44.881 89.77 44.881 38.783 0 69.161-15.894 89.77-44.881 20.547-28.899 31.27-70.642 31.27-122.239 0-51.597-10.723-93.34-31.27-122.239C467.481 17.894 437.103 2 398.32 2zm0 62.08c14.893 0 26.765 8.143 35.037 25.385 8.328 17.361 12.883 43.767 12.883 79.655 0 35.889-4.555 62.295-12.883 79.655-8.272 17.242-20.144 25.385-35.037 25.385s-26.765-8.143-35.037-25.385c-8.328-17.36-12.883-43.766-12.883-79.655 0-35.888 4.555-62.294 12.883-79.655 8.272-17.242 20.144-25.385 35.037-25.385zm282.779 128h-56.916c9.561-13.2 23.657-35.476 37.203-56.884 6.943-10.973 13.743-21.718 19.713-30.896v87.78z" stroke="#201E50" stroke-width="4"/></svg>